<?xml version="1.0" standalone="no"?>
<!DOCTYPE svg PUBLIC "-//W3C//DTD SVG 20010904//EN"
 "http://www.w3.org/TR/2001/REC-SVG-20010904/DTD/svg10.dtd">
<svg version="1.0" xmlns="http://www.w3.org/2000/svg"
 width="820.000000pt" height="512.000000pt" viewBox="0 0 820.000000 512.000000"
 preserveAspectRatio="xMidYMid meet">

<g transform="translate(0.000000,512.000000) scale(0.100000,-0.100000)"
fill="#000000" stroke="none">
<path d="M3947 4080 c-405 -73 -706 -388 -757 -791 -5 -46 -10 -163 -10 -261
l0 -178 -40 -20 c-51 -26 -104 -79 -132 -133 l-23 -42 0 -705 0 -705 23 -46
c29 -59 82 -112 141 -141 l46 -23 905 0 905 0 46 23 c59 29 112 82 141 141
l23 46 3 684 c3 755 4 733 -60 820 -17 23 -55 56 -84 73 l-54 30 0 183 c0 218
-11 308 -52 434 -94 283 -320 500 -615 587 -71 21 -114 27 -223 29 -74 2 -157
0 -183 -5z m241 -190 c93 -12 199 -47 282 -93 82 -46 218 -187 262 -272 72
-140 81 -184 86 -437 l4 -228 -721 0 -721 0 0 199 c0 239 12 307 76 439 83
172 250 315 430 367 49 14 126 27 204 34 9 0 53 -4 98 -9z m736 -1226 c30 -4
55 -15 71 -32 l25 -25 0 -659 0 -660 -29 -29 -29 -29 -862 0 -862 0 -29 29
-29 29 0 660 0 659 26 26 c14 14 38 28 52 30 45 7 1616 7 1666 1z"/>
<path d="M4015 2436 c-97 -44 -142 -174 -94 -273 16 -34 63 -82 97 -99 1 0
-14 -95 -33 -210 -19 -115 -35 -210 -35 -211 0 -2 68 -3 150 -3 83 0 150 2
150 5 0 3 -16 98 -35 212 -20 113 -35 206 -33 207 71 41 118 115 118 187 -1
79 -55 163 -123 188 -39 15 -126 13 -162 -3z"/>
</g>
</svg>
