<?xml version="1.0" standalone="no"?>
<!DOCTYPE svg PUBLIC "-//W3C//DTD SVG 20010904//EN"
 "http://www.w3.org/TR/2001/REC-SVG-20010904/DTD/svg10.dtd">
<svg version="1.0" xmlns="http://www.w3.org/2000/svg"
 width="820.000000pt" height="820.000000pt" viewBox="0 0 820.000000 820.000000"
 preserveAspectRatio="xMidYMid meet">

<g transform="translate(0.000000,820.000000) scale(0.100000,-0.100000)"
fill="#000000" stroke="none">
<path d="M3921 6135 c-365 -82 -562 -481 -400 -808 36 -73 48 -91 107 -151
210 -218 547 -233 784 -34 64 53 143 174 168 256 64 206 16 411 -133 568 -135
144 -344 210 -526 169z"/>
<path d="M4530 4604 c-25 -2 -198 -8 -385 -14 -460 -14 -882 -29 -982 -36
l-83 -6 0 -125 0 -126 103 5 c125 7 273 -6 324 -27 52 -22 101 -72 113 -115 6
-21 10 -346 10 -851 0 -880 0 -888 -52 -937 -50 -46 -93 -55 -275 -60 l-173
-4 0 -129 0 -129 995 0 995 0 0 129 0 129 -152 5 c-220 7 -293 36 -318 126 -6
23 -10 417 -10 1104 l0 1067 -32 -2 c-18 -1 -53 -3 -78 -4z"/>
</g>
</svg>
