<svg width="40" height="37" viewBox="0 0 40 37" fill="none" xmlns="http://www.w3.org/2000/svg">
<path d="M37.9797 13.5671L37.98 13.5672C38.4464 13.6079 38.816 13.909 38.9476 14.2992C39.0776 14.6865 38.9625 15.1159 38.6289 15.3984L29.9007 22.7859L29.433 23.1817L29.5733 23.7781L32.1467 34.7181C32.1467 34.7184 32.1468 34.7187 32.1468 34.7189C32.2393 35.1155 32.0847 35.5355 31.7214 35.789L31.7205 35.7896C31.3501 36.0487 30.8501 36.0708 30.4547 35.8427L20.5 30.0963L20.0001 29.8078L19.5002 30.0963L9.54334 35.8429L9.54306 35.843C9.3627 35.9472 9.15902 36 8.9531 36C8.71242 36 8.47775 35.9286 8.28065 35.7904L8.27866 35.789C7.91506 35.5353 7.76053 35.1149 7.85339 34.7181L10.4267 23.7781L10.567 23.1817L10.0993 22.7859L1.37095 15.3983C1.37092 15.3983 1.3709 15.3982 1.37087 15.3982C1.03755 15.116 0.922734 14.6857 1.05202 14.3005C1.18518 13.9098 1.55483 13.6089 2.02102 13.5671C2.02127 13.5671 2.02152 13.567 2.02176 13.567L13.569 12.5553L14.1572 12.5037L14.3961 11.9638L18.9595 1.6513L18.9597 1.65081C19.1283 1.26938 19.5271 1 20 1C20.4719 1 20.8718 1.26867 21.0428 1.6522C21.0429 1.65245 21.043 1.65271 21.0431 1.65297L25.6057 11.9638L25.8447 12.5037L26.4329 12.5553L37.9797 13.5671Z" fill="#EADEDE" stroke="#EADEDE" stroke-width="2"/>
</svg>
