<svg width="40" height="37" viewBox="0 0 40 37" fill="none" xmlns="http://www.w3.org/2000/svg">
<path d="M39 13.2419V36H27.75V27.4857V27.3283L27.7016 27.1785L26.75 27.4857C27.7016 27.1785 27.7015 27.1782 27.7015 27.178L27.7012 27.1772L27.7006 27.1752L27.6984 27.1686L27.6909 27.1457C27.6844 27.1261 27.6751 27.098 27.6629 27.0621C27.6386 26.9902 27.6029 26.8867 27.5564 26.7561C27.4634 26.495 27.3266 26.1248 27.1492 25.6823C26.7955 24.8001 26.2754 23.6169 25.6138 22.4324C24.9572 21.2568 24.1345 20.0308 23.1611 19.0995C22.1947 18.1749 20.9648 17.4346 19.5223 17.5011C18.18 17.5629 17.0766 18.3731 16.2303 19.3065C15.3709 20.2545 14.6524 21.4643 14.0821 22.6147C13.5077 23.7737 13.0607 24.9198 12.7582 25.7718C12.6065 26.1992 12.49 26.5556 12.411 26.8068C12.3715 26.9324 12.3413 27.0319 12.3207 27.1009C12.3174 27.1122 12.3143 27.1226 12.3114 27.1322C12.3056 27.1521 12.3008 27.1685 12.2971 27.1811L12.2907 27.2031L12.2889 27.2094L12.2884 27.2114L12.2882 27.212C12.2881 27.2123 12.288 27.2125 13.25 27.4857L12.288 27.2125L12.25 27.3465V27.4857V36H1V13.2292L19.5799 1.18425L39 13.2419Z" fill="#EADEDE" stroke="#EADEDE" stroke-width="2"/>
</svg>
