<svg width="49" height="37" viewBox="0 0 49 37" fill="none" xmlns="http://www.w3.org/2000/svg">
<path d="M43.4318 8.88924H5.56815C2.9345 8.88924 1 7.01035 1 4.94457C1 2.87882 2.93447 1 5.56815 1H43.4318C46.0656 1 48 2.87888 48 4.94467C48 7.01043 46.0656 8.88924 43.4318 8.88924Z" fill="#EADEDE" stroke="#EADEDE" stroke-width="2"/>
<path d="M5.56815 14.5554H43.4318C46.0656 14.5554 48 16.4343 48 18.5001C48 20.5659 46.0656 22.4447 43.4318 22.4447H5.56815C2.93446 22.4447 1 20.5659 1 18.5001C1 16.4342 2.93448 14.5554 5.56815 14.5554Z" fill="#EADEDE" stroke="#EADEDE" stroke-width="2"/>
<path d="M5.56815 28.1108H43.4318C46.0656 28.1108 48 29.9896 48 32.0554C48 34.1212 46.0656 36 43.4318 36H5.56815C2.93447 36 1 34.1212 1 32.0554C1 29.9897 2.93447 28.1108 5.56815 28.1108Z" fill="#EADEDE" stroke="#EADEDE" stroke-width="2"/>
</svg>
