<svg width="37" height="33" viewBox="0 0 37 33" fill="none" xmlns="http://www.w3.org/2000/svg">
<path d="M35.0857 12.7066L35.0861 12.7066C35.3284 12.727 35.4544 12.8698 35.4871 12.9636L36.9032 12.4688L35.4868 12.9626C35.5037 13.0111 35.5036 13.0555 35.491 13.098C35.4782 13.1415 35.4476 13.1978 35.3812 13.2522C35.3811 13.2523 35.3809 13.2524 35.3808 13.2525L27.3074 19.8412L26.5742 20.4395L26.7985 21.3588L29.1786 31.1154C29.1787 31.1155 29.1787 31.1157 29.1788 31.1158C29.1901 31.1628 29.1865 31.2074 29.1685 31.2519C29.1501 31.2975 29.111 31.3552 29.0343 31.4068L29.033 31.4077C28.8668 31.5198 28.6237 31.5329 28.4379 31.4298C28.4377 31.4297 28.4376 31.4296 28.4375 31.4295L19.2295 26.3045L18.5001 25.8985L17.7706 26.3044L8.56057 31.4297L8.56016 31.4299C8.48014 31.4745 8.38407 31.5 8.28162 31.5C8.16043 31.5 8.05205 31.4652 7.96873 31.4088L7.96575 31.4068C7.88907 31.3552 7.84998 31.2975 7.83155 31.2519C7.81354 31.2074 7.80996 31.1627 7.82133 31.1157C7.82135 31.1156 7.82138 31.1155 7.8214 31.1154L10.2016 21.3588L10.4258 20.4395L9.6927 19.8412L1.61897 13.2523C1.55286 13.1983 1.52203 13.1419 1.50905 13.0978C1.49647 13.0551 1.4965 13.0116 1.5123 12.9653C1.5471 12.869 1.67456 12.7275 1.91558 12.7065C1.91586 12.7065 1.91614 12.7065 1.91642 12.7064L12.5968 11.8041L13.4688 11.7305L13.8338 10.9351L18.0549 1.73753L18.0553 1.73678C18.1018 1.6353 18.2507 1.5 18.5 1.5C18.7479 1.5 18.899 1.63437 18.9478 1.73965C18.9478 1.73979 18.9479 1.73993 18.948 1.74007L23.1679 10.9351L23.5329 11.7305L24.4049 11.8041L35.0857 12.7066Z" stroke="#FFD43D" stroke-width="3"/>
</svg>
