<svg width="14" height="27" viewBox="0 0 14 27" fill="none" xmlns="http://www.w3.org/2000/svg">
<path d="M5.86494 0.843475C3.55031 1.35348 2.30104 3.83506 3.32836 5.86884C3.55665 6.32286 3.63275 6.43481 4.00689 6.80799C5.3386 8.16384 7.47567 8.25713 8.9786 7.01945C9.38445 6.68981 9.88543 5.93725 10.044 5.42725C10.4498 4.14603 10.1454 2.87104 9.20055 1.89457C8.34445 0.998963 7.01909 0.588475 5.86494 0.843475Z" fill="#102660"/>
<path d="M9.72686 10.3654C9.56832 10.3778 8.47125 10.4151 7.28539 10.4524C4.36832 10.5395 1.69223 10.6328 1.05808 10.6763L0.531738 10.7137V11.4911V12.2748L1.18491 12.2437C1.97759 12.2001 2.91613 12.281 3.23954 12.4116C3.5693 12.5484 3.88003 12.8594 3.95613 13.1268C3.99418 13.2574 4.01954 15.2788 4.01954 18.4196C4.01954 23.8928 4.01954 23.9426 3.68979 24.2473C3.37271 24.5334 3.10003 24.5894 1.94588 24.6205L0.848811 24.6454V25.4477V26.25H7.15857H13.4683V25.4477V24.6454L12.5044 24.6143C11.1093 24.5707 10.6464 24.3904 10.4878 23.8306C10.4498 23.6876 10.4244 21.2371 10.4244 16.9643V10.328L10.2215 10.3405C10.1073 10.3467 9.88539 10.3591 9.72686 10.3654Z" fill="#102660"/>
</svg>
