<svg width="10" height="20" viewBox="0 0 10 20" fill="none" xmlns="http://www.w3.org/2000/svg">
<path d="M3.12803 0.0794058C2.0937 0.236548 1.14637 0.529881 0.3972 0.938453C0.184534 1.04845 0.00570057 1.14798 0.00086724 1.15321C-0.00879942 1.16369 0.0637005 1.4256 0.150701 1.73988C0.242534 2.05417 0.4407 2.73512 0.590534 3.24845C0.735534 3.76179 0.870867 4.20179 0.885367 4.22798C0.895034 4.24893 1.04003 4.18607 1.2092 4.08131C2.06953 3.55226 3.36003 3.30607 4.19137 3.52083C4.72787 3.65702 5.0807 3.94512 5.3127 4.42702C5.40453 4.62607 5.42387 4.74655 5.42387 5.13941C5.41903 5.5375 5.3997 5.66845 5.2837 5.97226C5.10003 6.44369 4.72303 7.05655 4.0367 7.9994C3.14253 9.23036 2.8042 9.8694 2.53353 10.8437C2.40303 11.3308 2.38853 11.4565 2.36437 12.3785L2.34503 13.3894H4.10437H5.86853L5.89753 12.7189C5.95553 11.2104 6.27937 10.4823 7.6472 8.77988C8.9957 7.09845 9.42586 6.13464 9.49353 4.64179C9.59503 2.29512 8.17886 0.577024 5.7622 0.105596C5.0807 -0.0253563 3.9062 -0.0358324 3.12803 0.0794058Z" fill="#102660"/>
<path d="M3.27794 14.9138C2.28711 15.2543 1.71678 16.15 1.70711 17.3705C1.70228 18.1614 1.91978 18.7743 2.38378 19.2719C2.84294 19.7747 3.48094 20.0209 4.19144 19.9738C5.21127 19.9057 5.98944 19.2771 6.27944 18.2871C6.4196 17.8157 6.42927 17.0247 6.29877 16.5586C6.06677 15.7309 5.51577 15.1338 4.77627 14.9033C4.34127 14.7671 3.69361 14.7724 3.27794 14.9138Z" fill="#102660"/>
</svg>
