<svg width="32" height="27" viewBox="0 0 32 27" fill="none" xmlns="http://www.w3.org/2000/svg">
<path d="M23.4833 17.4278C25.058 15.6134 25.9999 13.3848 25.9999 10.9688C25.9999 4.92081 20.1679 0 12.9999 0C5.83197 0 0 4.92081 0 10.9688C0 17.0168 5.83204 21.9376 13 21.9376C15.8634 21.9376 18.505 21.1427 20.6553 19.8141L29.1719 27L32 24.6138L23.4833 17.4278ZM13 18.5625C8.03709 18.5625 4.00002 15.1563 4.00002 10.9688C4.00002 6.78133 8.03709 3.37503 13 3.37503C17.9629 3.37503 21.9999 6.78133 21.9999 10.9688C21.9999 15.1563 17.9628 18.5625 13 18.5625Z" fill="#102660"/>
</svg>
