<svg width="46" height="41" viewBox="0 0 46 41" fill="none" xmlns="http://www.w3.org/2000/svg">
<mask id="path-1-inside-1" fill="white">
<path d="M9.39384 30.396C9.39384 30.2724 9.42418 30.1044 9.33491 30.0002C9.24346 29.8936 9.00142 29.8562 8.87003 29.7926C8.52541 29.6262 8.19672 29.4362 7.88788 29.2183C7.10566 28.6665 6.60586 28.0166 6.16913 27.2162C6.04342 26.9859 5.92163 26.7547 5.81469 26.5163C5.76711 26.4105 5.74135 26.2509 5.66736 26.1607C5.5255 25.9881 4.99361 26.0281 4.94865 26.2563C4.86484 26.6805 5.20226 27.1214 5.41484 27.4762C6.02879 28.5005 6.72284 29.4696 7.80058 30.1294C8.21374 30.3822 8.64719 30.6359 9.15376 30.6359C9.15376 30.6359 9.37878 30.6473 9.39384 30.396Z"/>
</mask>
<path d="M9.39384 30.396C9.39384 30.2724 9.42418 30.1044 9.33491 30.0002C9.24346 29.8936 9.00142 29.8562 8.87003 29.7926C8.52541 29.6262 8.19672 29.4362 7.88788 29.2183C7.10566 28.6665 6.60586 28.0166 6.16913 27.2162C6.04342 26.9859 5.92163 26.7547 5.81469 26.5163C5.76711 26.4105 5.74135 26.2509 5.66736 26.1607C5.5255 25.9881 4.99361 26.0281 4.94865 26.2563C4.86484 26.6805 5.20226 27.1214 5.41484 27.4762C6.02879 28.5005 6.72284 29.4696 7.80058 30.1294C8.21374 30.3822 8.64719 30.6359 9.15376 30.6359C9.15376 30.6359 9.37878 30.6473 9.39384 30.396Z" fill="#102660"/>
<path d="M9.39384 30.396L10.3921 30.4558L10.3938 30.4259V30.396H9.39384ZM9.33491 30.0002L10.0943 29.3496L10.0939 29.3491L9.33491 30.0002ZM8.87003 29.7926L9.3057 28.8925L9.30481 28.8921L8.87003 29.7926ZM7.88788 29.2183L8.46454 28.4013L8.46428 28.4011L7.88788 29.2183ZM6.16913 27.2162L7.04694 26.7372V26.7372L6.16913 27.2162ZM5.81469 26.5163L6.72707 26.107L6.72669 26.1061L5.81469 26.5163ZM5.66736 26.1607L6.4405 25.5265L6.43987 25.5257L5.66736 26.1607ZM4.94865 26.2563L5.92968 26.4502L5.92979 26.4496L4.94865 26.2563ZM5.41484 27.4762L4.55705 27.9902L4.55711 27.9903L5.41484 27.4762ZM7.80058 30.1294L7.27849 30.9823L7.27869 30.9824L7.80058 30.1294ZM9.15376 30.6359L9.20435 29.6372L9.17907 29.6359H9.15376V30.6359ZM10.3938 30.396C10.3938 30.3997 10.3937 30.3985 10.3942 30.3871C10.395 30.3666 10.395 30.3707 10.3963 30.3383C10.398 30.2983 10.4008 30.224 10.3966 30.1402C10.3889 29.988 10.3529 29.6514 10.0943 29.3496L8.57551 30.6508C8.49041 30.5515 8.4463 30.4504 8.42403 30.3762C8.40306 30.3064 8.39984 30.2553 8.39914 30.2415C8.39846 30.2281 8.39929 30.2255 8.39806 30.255C8.39796 30.2573 8.39625 30.2956 8.39575 30.3084C8.39488 30.3302 8.39384 30.3614 8.39384 30.396H10.3938ZM10.0939 29.3491C9.95448 29.1866 9.79788 29.0934 9.7023 29.0439C9.60145 28.9916 9.50588 28.9565 9.44488 28.9354C9.3975 28.919 9.30901 28.8907 9.29976 28.8876C9.26218 28.8752 9.27554 28.8779 9.3057 28.8925L8.43436 30.6927C8.48602 30.7177 8.53357 30.7369 8.57063 30.7509C8.60815 30.7651 8.64319 30.777 8.67071 30.7861C8.69684 30.7948 8.72588 30.8041 8.74348 30.8098C8.76428 30.8165 8.77839 30.8211 8.79002 30.8252C8.80145 30.8291 8.80594 30.8309 8.80591 30.8309C8.80566 30.8308 8.80346 30.8299 8.79968 30.8282C8.79591 30.8265 8.78988 30.8237 8.78204 30.8196C8.76738 30.812 8.74019 30.7969 8.70649 30.7724C8.6729 30.7481 8.62536 30.7089 8.57596 30.6513L10.0939 29.3491ZM9.30481 28.8921C9.00435 28.747 8.72386 28.5843 8.46454 28.4013L7.31123 30.0353C7.66957 30.2882 8.04646 30.5054 8.43525 30.6932L9.30481 28.8921ZM8.46428 28.4011C7.83978 27.9606 7.43233 27.4435 7.04694 26.7372L5.29132 27.6952C5.77938 28.5897 6.37154 29.3724 7.31149 30.0354L8.46428 28.4011ZM7.04694 26.7372C6.92467 26.5132 6.8178 26.3092 6.72707 26.107L4.9023 26.9256C5.02546 27.2002 5.16216 27.4586 5.29132 27.6952L7.04694 26.7372ZM6.72669 26.1061C6.73702 26.1291 6.73961 26.1397 6.73208 26.1168C6.72869 26.1065 6.7254 26.0961 6.71943 26.0774C6.71418 26.0609 6.70694 26.0383 6.69886 26.0142C6.6833 25.9679 6.65825 25.8968 6.62239 25.8194C6.58696 25.7428 6.52998 25.6356 6.4405 25.5265L4.89423 26.795C4.84174 26.731 4.81573 26.6775 4.80743 26.6596C4.79868 26.6407 4.79692 26.6331 4.803 26.6511C4.80573 26.6593 4.8089 26.6691 4.81391 26.6848C4.81821 26.6983 4.82505 26.7199 4.83192 26.7408C4.83906 26.7626 4.84834 26.7901 4.85938 26.82C4.87039 26.8499 4.88471 26.8865 4.90268 26.9265L6.72669 26.1061ZM6.43987 25.5257C6.20947 25.2454 5.9096 25.1404 5.73531 25.0985C5.53936 25.0514 5.34143 25.0448 5.16388 25.0641C4.99111 25.0828 4.77493 25.1328 4.56644 25.2511C4.36234 25.3669 4.05522 25.6179 3.96752 26.063L5.92979 26.4496C5.86456 26.7807 5.64079 26.9411 5.55349 26.9906C5.46181 27.0426 5.3959 27.0506 5.37946 27.0524C5.35823 27.0547 5.32268 27.0563 5.26777 27.0431C5.23451 27.0351 5.05433 26.9897 4.89486 26.7957L6.43987 25.5257ZM3.96762 26.0625C3.86315 26.5912 4.03506 27.048 4.17044 27.3278C4.29589 27.5871 4.49859 27.8926 4.55705 27.9902L6.27264 26.9622C6.24024 26.9082 6.20688 26.8548 6.17725 26.8076C6.14606 26.7579 6.11925 26.7155 6.0922 26.6715C6.03818 26.5837 5.99918 26.5155 5.97077 26.4567C5.90524 26.3213 5.95034 26.3456 5.92968 26.4502L3.96762 26.0625ZM4.55711 27.9903C5.19201 29.0496 5.98797 30.1923 7.27849 30.9823L8.32268 29.2765C7.45772 28.747 6.86558 27.9515 6.27257 26.9621L4.55711 27.9903ZM7.27869 30.9824C7.66411 31.2182 8.32656 31.6359 9.15376 31.6359V29.6359C8.96783 29.6359 8.76337 29.5461 8.32247 29.2764L7.27869 30.9824ZM9.15376 30.6359C9.10317 31.6347 9.10371 31.6347 9.10426 31.6347C9.10445 31.6347 9.105 31.6348 9.10537 31.6348C9.10611 31.6348 9.10685 31.6348 9.1076 31.6349C9.10911 31.6349 9.11064 31.635 9.11219 31.6351C9.1153 31.6352 9.11851 31.6353 9.12182 31.6354C9.12844 31.6357 9.13547 31.6358 9.1429 31.6359C9.15773 31.6361 9.17431 31.636 9.19244 31.6355C9.22836 31.6345 9.27225 31.6316 9.322 31.6249C9.41743 31.6121 9.55719 31.5824 9.70923 31.5077C10.0787 31.3261 10.3622 30.9533 10.3921 30.4558L8.39563 30.3362C8.40107 30.2454 8.43101 30.1131 8.52195 29.9788C8.61197 29.8459 8.72734 29.7618 8.82708 29.7127C8.92098 29.6666 9.00355 29.6497 9.05631 29.6427C9.08473 29.6388 9.11092 29.637 9.13447 29.6364C9.14642 29.636 9.15816 29.6359 9.16968 29.6361C9.17546 29.6362 9.18123 29.6363 9.187 29.6365C9.18988 29.6366 9.19277 29.6367 9.19566 29.6368C9.1971 29.6369 9.19855 29.6369 9.2 29.637C9.20073 29.637 9.20145 29.6371 9.20218 29.6371C9.20254 29.6371 9.20308 29.6372 9.20327 29.6372C9.20381 29.6372 9.20435 29.6372 9.15376 30.6359Z" fill="#102660" mask="url(#path-1-inside-1)"/>
<mask id="path-3-inside-2" fill="white">
<path d="M39.6167 20.5127C39.5297 20.4155 39.3908 20.2989 39.3784 20.1713C39.3658 20.0406 39.5046 19.8874 39.5495 19.7701C39.6675 19.4629 39.758 19.1452 39.8153 18.8158C39.9607 17.9815 39.8443 17.2145 39.5789 16.3616C39.5026 16.1161 39.4229 15.8719 39.3281 15.6297C39.2861 15.5221 39.1914 15.3835 39.1784 15.2747C39.1537 15.0663 39.5448 14.8256 39.736 14.982C40.0918 15.2727 40.1719 15.7922 40.2766 16.18C40.5786 17.2999 40.7872 18.4172 40.5162 19.4877C40.4122 19.8979 40.2951 20.3193 39.9494 20.5786C39.9494 20.5786 39.8039 20.7027 39.6167 20.5127Z"/>
</mask>
<path d="M39.6167 20.5127C39.5297 20.4155 39.3908 20.2989 39.3784 20.1713C39.3658 20.0406 39.5046 19.8874 39.5495 19.7701C39.6675 19.4629 39.758 19.1452 39.8153 18.8158C39.9607 17.9815 39.8443 17.2145 39.5789 16.3616C39.5026 16.1161 39.4229 15.8719 39.3281 15.6297C39.2861 15.5221 39.1914 15.3835 39.1784 15.2747C39.1537 15.0663 39.5448 14.8256 39.736 14.982C40.0918 15.2727 40.1719 15.7922 40.2766 16.18C40.5786 17.2999 40.7872 18.4172 40.5162 19.4877C40.4122 19.8979 40.2951 20.3193 39.9494 20.5786C39.9494 20.5786 39.8039 20.7027 39.6167 20.5127Z" fill="#102660"/>
<path d="M39.6167 20.5127L38.8499 21.1481L38.8329 21.1307L38.8168 21.1127L39.6167 20.5127ZM39.3784 20.1713L38.3411 20.2404L38.341 20.2398L39.3784 20.1713ZM39.5495 19.7701L38.5663 19.4391L38.5667 19.4382L39.5495 19.7701ZM39.8153 18.8158L38.7868 18.6492L38.7869 18.6489L39.8153 18.8158ZM39.5789 16.3616L38.5779 16.6099L38.5779 16.6099L39.5789 16.3616ZM39.3281 15.6297L38.3488 15.9398L38.3485 15.9391L39.3281 15.6297ZM39.1784 15.2747L38.1431 15.363L38.143 15.3622L39.1784 15.2747ZM39.736 14.982L39.0512 15.692L39.0509 15.6918L39.736 14.982ZM40.2766 16.18L41.2872 15.9648L41.2872 15.9649L40.2766 16.18ZM40.5162 19.4877L41.5308 19.7193L41.5307 19.7196L40.5162 19.4877ZM39.9494 20.5786L39.2338 19.8724L39.2575 19.8522L39.2826 19.8334L39.9494 20.5786ZM38.8168 21.1127C38.8168 21.1128 38.8165 21.1125 38.816 21.1119C38.8154 21.1112 38.8146 21.1104 38.8135 21.1091C38.8111 21.1067 38.808 21.1034 38.8037 21.0988C38.7894 21.0838 38.7886 21.0832 38.7675 21.0611C38.7391 21.0314 38.6915 20.9813 38.643 20.9224C38.5616 20.8237 38.3742 20.5812 38.3411 20.2404L40.4157 20.1021C40.4046 19.9885 40.3682 19.9042 40.3433 19.8574C40.3191 19.8118 40.2975 19.7859 40.2962 19.7844C40.2949 19.7827 40.2991 19.788 40.3216 19.8115C40.3269 19.817 40.3322 19.8225 40.3389 19.8295C40.3451 19.836 40.3527 19.8438 40.3604 19.8519C40.3755 19.8677 40.3955 19.889 40.4167 19.9127L38.8168 21.1127ZM38.341 20.2398C38.3216 20.0395 38.3634 19.8734 38.4003 19.7666C38.4374 19.659 38.4844 19.5705 38.5142 19.5173C38.53 19.489 38.5452 19.4633 38.5562 19.4448C38.5691 19.423 38.5749 19.4135 38.5815 19.402C38.5971 19.3753 38.5826 19.3967 38.5663 19.4391L40.5326 20.1011C40.5118 20.1555 40.4895 20.2019 40.4716 20.2366C40.4535 20.2717 40.4359 20.3027 40.4225 20.3257C40.41 20.3472 40.3957 20.3712 40.3884 20.3835C40.3791 20.399 40.3741 20.4077 40.3705 20.414C40.3671 20.4201 40.3677 20.4195 40.3703 20.4141C40.3728 20.4089 40.3793 20.3947 40.3867 20.3733C40.394 20.352 40.4041 20.3184 40.411 20.2745C40.418 20.2303 40.4224 20.1718 40.4158 20.1027L38.341 20.2398ZM38.5667 19.4382C38.6656 19.1807 38.74 18.9184 38.7868 18.6492L40.8438 18.9823C40.7761 19.3721 40.6694 19.745 40.5322 20.102L38.5667 19.4382ZM38.7869 18.6489C38.9001 17.9993 38.8181 17.3822 38.5779 16.6099L40.58 16.1132C40.8704 17.0469 41.0213 17.9637 40.8438 18.9826L38.7869 18.6489ZM38.5779 16.6099C38.5034 16.3705 38.4314 16.1511 38.3488 15.9398L40.3075 15.3196C40.4144 15.5928 40.5017 15.8617 40.58 16.1132L38.5779 16.6099ZM38.3485 15.9391C38.3543 15.9539 38.3565 15.9567 38.3446 15.933C38.3391 15.9221 38.3335 15.9112 38.3247 15.894C38.3167 15.8784 38.3063 15.8581 38.2956 15.8365C38.2751 15.795 38.2454 15.733 38.2184 15.6618C38.1923 15.5928 38.1581 15.4883 38.1431 15.363L40.2136 15.1863C40.2051 15.1154 40.1877 15.069 40.1843 15.06C40.18 15.0488 40.1791 15.0486 40.1891 15.0688C40.1937 15.0781 40.1991 15.0886 40.2068 15.1036C40.2136 15.1169 40.2236 15.1363 40.2331 15.1553C40.2512 15.1912 40.281 15.2517 40.3078 15.3203L38.3485 15.9391ZM38.143 15.3622C38.1022 15.0178 38.2386 14.743 38.3609 14.5759C38.4878 14.4026 38.6526 14.2682 38.8217 14.1732C39.0694 14.0339 39.7929 13.7584 40.4212 14.2723L39.0509 15.6918C39.2602 15.863 39.4988 15.8963 39.6508 15.8871C39.7899 15.8787 39.8826 15.837 39.9308 15.8099C39.9812 15.7815 40.041 15.7367 40.0955 15.6622C40.1455 15.5939 40.2422 15.4273 40.2137 15.1872L38.143 15.3622ZM40.4209 14.272C40.8019 14.5834 40.9862 14.9744 41.0883 15.2572C41.1825 15.5177 41.2555 15.8474 41.2872 15.9648L39.2659 16.3953C39.2401 16.2995 39.2037 16.1491 39.1847 16.0756C39.1596 15.9781 39.1369 15.8996 39.1126 15.8321C39.0596 15.6854 39.0259 15.6714 39.0512 15.692L40.4209 14.272ZM41.2872 15.9649C41.5946 17.1045 41.8614 18.4136 41.5308 19.7193L39.5016 19.256C39.713 18.4209 39.5626 17.4952 39.2659 16.3952L41.2872 15.9649ZM41.5307 19.7196C41.4411 20.0731 41.2732 20.8311 40.6163 21.3237L39.2826 19.8334C39.2851 19.8315 39.316 19.8086 39.3606 19.71C39.4094 19.6022 39.4484 19.4659 39.5016 19.2558L41.5307 19.7196ZM39.9494 20.5786C40.6651 21.2847 40.6645 21.2852 40.664 21.2856C40.6639 21.2858 40.6633 21.2862 40.663 21.2865C40.6623 21.2871 40.6616 21.2877 40.6609 21.2883C40.6595 21.2895 40.6581 21.2907 40.6566 21.2919C40.6537 21.2943 40.6507 21.2968 40.6476 21.2993C40.6414 21.3044 40.6348 21.3096 40.6278 21.3151C40.6138 21.3259 40.5981 21.3376 40.5806 21.3497C40.5459 21.3739 40.5026 21.4012 40.4508 21.4283C40.3493 21.4814 40.1992 21.542 40.0074 21.5653C39.5521 21.6208 39.1382 21.4407 38.8499 21.1481L40.3835 19.8773C40.3455 19.8387 40.2635 19.7697 40.1294 19.7191C39.9897 19.6663 39.8398 19.6513 39.6992 19.6684C39.5672 19.6845 39.4652 19.7259 39.3968 19.7617C39.3616 19.7801 39.3311 19.7992 39.3051 19.8173C39.2919 19.8265 39.2795 19.8357 39.2677 19.8448C39.2618 19.8494 39.2561 19.8539 39.2504 19.8585C39.2476 19.8608 39.2448 19.8631 39.2421 19.8654C39.2407 19.8666 39.2393 19.8678 39.2379 19.8689C39.2372 19.8695 39.2366 19.8701 39.2359 19.8707C39.2355 19.8709 39.235 19.8714 39.2349 19.8715C39.2343 19.872 39.2338 19.8724 39.9494 20.5786Z" fill="#102660" mask="url(#path-3-inside-2)"/>
<path d="M4.29487 28.3544C4.773 29.0758 5.35446 29.7724 6.03655 30.3546L4.29487 28.3544ZM4.29487 28.3544C4.44086 28.6095 4.61166 28.8641 4.79578 29.1354L4.79589 29.1355C5.2116 29.7486 5.60371 30.2445 6.17628 30.6635L6.17644 30.6636C6.21313 30.6905 6.25014 30.7183 6.2876 30.7464C6.42492 30.8497 6.56826 30.9574 6.72361 31.0393C6.80318 31.0812 6.85839 31.1014 6.89457 31.1111C6.90641 31.0923 6.92026 31.072 6.93629 31.0512L6.93678 31.0505C6.94715 31.0371 6.9576 31.0239 6.96767 31.0114C6.93518 30.996 6.89766 30.9767 6.86057 30.9535L6.86051 30.9535C6.5755 30.7758 6.29451 30.5748 6.03657 30.3546L4.29487 28.3544ZM3.66494 26.9794C3.66497 26.9793 3.66532 26.9806 3.6659 26.9835C3.6652 26.9809 3.66491 26.9795 3.66494 26.9794ZM6.82974 31.2314C6.82937 31.2321 6.82938 31.232 6.82979 31.2312L6.82974 31.2314Z" fill="#102660" stroke="#102660"/>
<path d="M41.2616 15.2944C41.2615 15.2944 41.2621 15.2952 41.2634 15.2969C41.2623 15.2953 41.2617 15.2944 41.2616 15.2944ZM41.8278 16.1849C41.7814 16.1003 41.7322 16.0201 41.6796 15.9438C41.7435 16.0727 41.8014 16.2071 41.8488 16.3466L41.8488 16.3466C42.1778 17.3146 42.3856 18.3698 42.3565 19.4133C42.347 19.7573 42.3023 20.1048 42.2337 20.4391L42.2337 20.4392C42.2198 20.5067 42.1966 20.5687 42.1806 20.6094C42.1771 20.6183 42.1736 20.6272 42.1701 20.6359C42.1859 20.6372 42.2029 20.6386 42.2219 20.6402L42.2241 20.6403C42.2592 20.6432 42.302 20.6467 42.3454 20.6512L42.3462 20.6513C42.3879 20.6558 42.4253 20.6626 42.4565 20.6695C42.4784 20.6363 42.5082 20.5778 42.538 20.4767C42.5897 20.3019 42.6084 20.1163 42.626 19.9415C42.6307 19.8943 42.6354 19.8479 42.6406 19.8027L42.6406 19.8025C42.7249 19.076 42.5947 18.4258 42.3799 17.6776L42.3798 17.6775C42.2236 17.1325 42.0771 16.6389 41.8279 16.185L41.8278 16.1849Z" fill="#102660" stroke="#102660"/>
<path d="M14.8159 28.6395C14.7373 28.6834 14.5964 28.6737 14.4793 28.6656C14.4378 28.6628 14.3993 28.6601 14.3676 28.6601C14.2437 28.6601 14.1188 28.6578 13.9936 28.6555C13.732 28.6506 13.4692 28.6457 13.2109 28.6619M14.8159 28.6395L14.5724 28.2028L14.5726 28.2027M14.8159 28.6395C14.961 28.5587 15.0935 28.3729 15.2092 28.2108C15.2541 28.1479 15.2965 28.0885 15.336 28.0402C15.4394 27.9141 15.5433 27.7882 15.6472 27.6623C15.9322 27.3168 16.2173 26.9712 16.4939 26.6203C16.612 26.4704 16.7303 26.3205 16.8486 26.1707C17.6807 25.1168 18.5125 24.0632 19.3002 22.9806M14.8159 28.6395L18.8958 22.6865M13.2109 28.6619L13.1797 28.1629C13.1796 28.1629 13.1796 28.1629 13.1795 28.1629M13.2109 28.6619L13.1795 28.1629M13.2109 28.6619C13.0622 28.6712 12.9136 28.6758 12.7653 28.6804C12.4767 28.6893 12.1888 28.6981 11.9014 28.7417M13.1795 28.1629C13.4582 28.1454 13.758 28.1509 14.0299 28.1559C14.1492 28.158 14.2632 28.1601 14.3676 28.1601C14.4166 28.1601 14.469 28.1637 14.5042 28.1662L14.5082 28.1664C14.5479 28.1692 14.5779 28.1712 14.6059 28.1721M13.1795 28.1629C13.0634 28.1702 12.9325 28.1743 12.7934 28.1788C12.4878 28.1885 12.1424 28.1995 11.8266 28.2473M14.6059 28.1721C14.6058 28.1722 14.6058 28.1722 14.6057 28.1723C14.5826 28.1958 14.571 28.2035 14.5711 28.2036C14.5711 28.2036 14.5716 28.2033 14.5726 28.2027M14.6059 28.1721C14.6325 28.145 14.6638 28.1079 14.701 28.0592C14.7342 28.0157 14.7662 27.9708 14.8021 27.9205L14.8165 27.9002C14.8551 27.8463 14.9019 27.7811 14.9493 27.7233L14.9494 27.7231C15.0549 27.5944 15.1601 27.467 15.2647 27.3402C15.5485 26.9961 15.8283 26.6569 16.1012 26.3108C16.2197 26.1604 16.3382 26.0103 16.4566 25.8604C17.2891 24.8058 18.1144 23.7605 18.8958 22.6865M14.6059 28.1721C14.6076 28.1722 14.6093 28.1722 14.6109 28.1723C14.6248 28.1727 14.6355 28.1726 14.6438 28.1724C14.6522 28.1721 14.6558 28.1717 14.6557 28.1717L14.6505 28.1726C14.6474 28.1732 14.6424 28.1742 14.6358 28.1761C14.6235 28.1796 14.6007 28.1871 14.5726 28.2027M14.5726 28.2027L18.8958 22.6865M18.8958 22.6865L19.3002 22.9806M18.8958 22.6865C18.8958 22.6865 18.8958 22.6865 18.8959 22.6864L19.3002 22.9806M18.8958 22.6865C18.9897 22.5574 19.0932 22.4459 19.1773 22.356L19.1952 22.3369C19.2766 22.2501 19.3389 22.1836 19.3942 22.1128L19.7882 22.4206M19.3002 22.9806C19.38 22.8708 19.4718 22.7729 19.5635 22.6751C19.641 22.5925 19.7184 22.51 19.7882 22.4206M19.7882 22.4206L19.3942 22.1128C19.4456 22.047 19.495 21.9624 19.5526 21.8503C19.5689 21.8184 19.5886 21.7786 19.61 21.7353C19.6315 21.6921 19.6546 21.6453 19.6778 21.5996M19.7882 22.4206C19.9001 22.2774 19.9846 22.1063 20.0672 21.939C20.104 21.8645 20.1404 21.7908 20.1786 21.7207M19.6778 21.5996C19.7446 21.5886 19.8096 21.5772 19.8719 21.5662C19.8778 21.5652 19.8836 21.5642 19.8895 21.5632L20.1786 21.7207M19.6778 21.5996C19.5416 21.6221 19.3983 21.6431 19.2563 21.6555M19.6778 21.5996C19.6988 21.5582 19.7199 21.5176 19.7397 21.4812M20.1786 21.7207C20.2167 21.6509 20.2589 21.5802 20.3016 21.5088C20.3037 21.5053 20.3057 21.5019 20.3078 21.4984C20.2037 21.5105 20.0934 21.528 19.9738 21.5485C19.9465 21.5532 19.9185 21.5581 19.8898 21.5631L20.1786 21.7207ZM19.2563 21.6555L19.7397 21.4812M19.2563 21.6555C17.9016 21.7736 16.2274 21.8219 14.8398 21.2777C14.6514 21.2038 14.4859 21.1053 14.346 21.0146C14.2836 20.9742 14.2222 20.9325 14.1661 20.8944L14.146 20.8808C14.0827 20.8379 14.0256 20.7995 13.9697 20.7642L13.9696 20.7641C13.1973 20.2762 12.179 19.5407 11.8642 18.4609L11.8642 18.4609C11.7398 18.0343 11.8603 17.5815 11.929 17.3295L11.929 17.3294C12.1024 16.6942 12.3602 16.0081 13.0019 15.4789L13.0019 15.4788C13.7923 14.8271 14.8173 14.697 15.6788 14.6625L19.2563 21.6555ZM19.2563 21.6555L19.2129 21.1574M19.2563 21.6555C19.2563 21.6555 19.2563 21.6555 19.2562 21.6555L19.2129 21.1574M19.7397 21.4812C19.7797 21.4078 19.8357 21.3138 19.8842 21.2323C19.9125 21.1847 19.9383 21.1414 19.9568 21.109C19.9711 21.084 19.9843 21.0603 19.9965 21.0377M19.7397 21.4812L19.9965 21.0377M19.9965 21.0377C19.9245 21.0494 19.8525 21.062 19.7805 21.0746C19.5906 21.1078 19.4009 21.141 19.2129 21.1574M19.9965 21.0377L14.4468 20.4807C14.6302 20.6051 14.8162 20.7313 15.0224 20.8122C16.292 21.3101 17.8623 21.2751 19.2129 21.1574M11.8266 28.2473L11.9014 28.7417M11.8266 28.2473C11.8265 28.2474 11.8264 28.2474 11.8264 28.2474L11.9014 28.7417M11.8266 28.2473L8.18163 25.6564M11.9014 28.7417C11.8063 28.7561 11.7032 28.7833 11.5979 28.8111C11.4116 28.8602 11.2183 28.9112 11.0502 28.8965C10.0798 28.8123 9.15136 27.9748 8.609 27.3002M8.609 27.3002L8.99875 26.987C8.99872 26.987 8.99869 26.987 8.99866 26.9869L8.609 27.3002ZM8.609 27.3002C8.25979 26.8657 7.86126 26.3273 7.7028 25.8004M7.7028 25.8004L8.18168 25.6566C8.18166 25.6565 8.18164 25.6564 8.18163 25.6564M7.7028 25.8004C7.66656 25.6797 7.66088 25.5571 7.65515 25.4335C7.6488 25.2966 7.64239 25.1585 7.59433 25.0204L5.29148 3.42589C5.25678 3.39302 5.23654 3.38678 5.22993 3.38496C5.22117 3.38255 5.20197 3.37919 5.16249 3.38564C5.06111 3.40222 4.94492 3.45689 4.74095 3.55491L4.74079 3.55499C4.68567 3.58145 4.63479 3.5995 4.59532 3.61225C4.57256 3.6196 4.53876 3.62965 4.51888 3.63556C4.51222 3.63754 4.50712 3.63906 4.50452 3.63985C4.49924 3.64146 4.49474 3.64289 4.49096 3.64413C4.48834 3.65139 4.48514 3.6629 4.48224 3.68032C4.47178 3.74318 4.47575 3.83198 4.49409 3.93189C4.57624 4.37841 4.80192 4.77922 5.07059 5.25638C5.13295 5.36713 5.19763 5.482 5.26337 5.6025C5.26338 5.60253 5.2634 5.60256 5.26341 5.60259L4.82447 5.84202M7.7028 25.8004L8.18163 25.6564M8.18163 25.6564C8.16466 25.5998 8.16058 25.537 8.15366 25.39L8.1535 25.3865C8.14749 25.2589 8.13823 25.062 8.06656 24.8561L8.06644 24.8558C7.57729 23.4533 7.16755 22.0372 6.86446 20.5979C6.77182 20.1574 6.70067 19.709 6.64158 19.2562L6.64152 19.2558C6.63497 19.206 6.63372 19.1563 6.63171 19.0762C6.63132 19.0609 6.63091 19.0445 6.63043 19.0267C6.6278 18.9303 6.62278 18.7944 6.59098 18.652C6.42568 17.9117 6.05323 17.2105 5.71823 16.6157L5.71822 16.6157C5.11446 15.5439 4.39106 14.5387 3.65882 13.564C3.47757 13.3227 3.29625 13.0839 3.11592 12.8464C2.56175 12.1166 2.01689 11.399 1.51173 10.6595C1.18364 10.1793 0.876246 9.70595 0.633755 9.21889C0.568124 9.08703 0.526837 8.98889 0.508869 8.90554C0.492957 8.83173 0.500936 8.79514 0.512814 8.76903C0.551697 8.68365 0.699104 8.5384 0.922327 8.46252C1.1414 8.38805 1.2765 8.42937 1.33634 8.48119C1.34144 8.48562 1.35344 8.49756 1.39094 8.55225C1.39452 8.55747 1.39866 8.56361 1.40333 8.57052C1.43587 8.61876 1.49394 8.70481 1.56482 8.78141L1.56499 8.78159C1.73096 8.96076 1.90344 9.13291 2.06949 9.29774C2.08347 9.31162 2.09741 9.32545 2.11129 9.33923C2.26444 9.49119 2.41136 9.63697 2.55279 9.78593C3.1723 10.4387 3.76653 11.0862 4.36397 11.7372C4.86382 12.2819 5.36593 12.8291 5.88698 13.3838C5.92821 13.4276 5.97058 13.4737 6.01435 13.5214C6.34719 13.8836 6.76133 14.3343 7.3755 14.5752L7.3756 14.5752C7.4869 14.6189 7.67109 14.6886 7.87115 14.7097C8.08031 14.7317 8.3645 14.7057 8.60656 14.4918C8.83543 14.2897 8.88638 14.024 8.8943 13.8474C8.90125 13.6924 8.87708 13.5367 8.8638 13.4512C8.86245 13.4425 8.86121 13.4345 8.86013 13.4274C8.86011 13.4272 8.86009 13.4271 8.86007 13.427L8.36564 13.5014M8.36564 13.5014C8.28358 12.9532 8.10854 12.4541 7.88548 11.9415C6.98191 9.86529 5.91487 7.84006 4.82447 5.84202M8.36564 13.5014C8.36683 13.5093 8.36806 13.5174 8.36931 13.5256C8.39823 13.7153 8.43764 13.9739 8.2755 14.1171L8.36564 13.5014ZM4.82447 5.84202C4.76782 5.73816 4.70911 5.63434 4.6502 5.53016C4.37779 5.04837 4.101 4.55887 4.00231 4.02218M4.82447 5.84202L4.00231 4.02218M4.00231 4.02218C3.95495 3.7642 3.94905 3.41223 4.19786 3.23444C4.25819 3.19126 4.32344 3.17194 4.38931 3.15242C4.43449 3.13904 4.47997 3.12557 4.52437 3.10425C4.53462 3.09933 4.54489 3.09438 4.55518 3.08942L4.00231 4.02218ZM18.3495 14.2088L18.3496 14.2088C18.6176 14.1288 18.8833 14.0276 19.1698 13.9184C19.2318 13.8948 19.2948 13.8708 19.359 13.8466C19.5799 13.7632 19.8124 13.6782 20.0527 13.6053C20.0525 13.5968 20.0524 13.5883 20.0523 13.5799C20.0516 13.5347 20.0513 13.4937 20.051 13.4555C20.0504 13.3599 20.0498 13.2818 20.0436 13.1986C19.9853 12.4175 20.027 11.6243 20.0663 10.8757C20.0737 10.7347 20.081 10.5953 20.0876 10.4578L20.0876 10.4577C20.2051 8.0004 20.3846 5.55099 20.5675 3.10497L20.5675 3.1049C20.5741 3.01644 20.5815 2.93728 20.5885 2.86328C20.6022 2.71705 20.6141 2.59094 20.614 2.45305C20.614 2.26343 20.5876 2.12412 20.5296 2.01204L20.5296 2.012C20.461 1.87925 20.2782 1.74036 20.0079 1.68956C19.7409 1.63936 19.4993 1.6971 19.3572 1.81422C19.3202 1.8447 19.3057 1.86959 19.2922 1.92479C19.2834 1.96075 19.2767 2.00557 19.2695 2.0726C19.2678 2.08832 19.2659 2.10719 19.2639 2.12806C19.2585 2.18168 19.2519 2.24847 19.2438 2.30861C19.2438 2.30868 19.2438 2.30875 19.2438 2.30881L18.7482 2.24232L18.3495 14.2088ZM18.3495 14.2088C18.1656 14.2638 18.027 14.2882 17.8711 14.3132M18.3495 14.2088L17.8711 14.3132M15.9783 12.5252L15.9782 12.5252C15.7205 12.4771 15.5147 12.3283 15.3766 12.2C15.2322 12.0661 15.1143 11.9105 15.0345 11.7744L15.0343 11.7741C14.8613 11.4783 14.8116 11.1334 14.7796 10.9114C14.7739 10.8715 14.7687 10.8356 14.7635 10.8046C14.7079 10.4751 14.6476 10.1448 14.5865 9.81201L14.5864 9.8117C14.4011 8.79885 14.2414 7.79966 14.0826 6.80669C13.8504 5.35409 13.6203 3.9148 13.3153 2.4655L15.9783 12.5252ZM15.9783 12.5252C16.3521 12.595 16.6365 12.3961 16.7884 12.2514C16.9479 12.0995 17.0607 11.9173 17.1242 11.8011L15.9783 12.5252ZM11.8269 0.574502L11.8265 0.574678C11.7199 0.630157 11.6319 0.689221 11.5634 0.751927C11.4049 0.897526 11.3468 1.08803 11.36 1.40008C11.3668 1.55993 11.3916 1.73025 11.4224 1.92387C11.4255 1.94286 11.4286 1.96219 11.4317 1.98181C11.4589 2.1513 11.4895 2.34237 11.5032 2.52498L11.5032 2.52501C11.5853 3.62302 11.6757 4.72096 11.7664 5.82101L11.7702 5.86658C11.8596 6.95088 11.9491 8.03726 12.0309 9.12426L12.0309 9.12433C12.0846 9.84009 12.1395 10.5788 12.1395 11.3216C12.1395 11.345 12.1403 11.3628 12.1416 11.3886C12.1427 11.4128 12.1442 11.444 12.1457 11.4936C12.148 11.5722 12.1487 11.6788 12.1343 11.7896C12.1083 11.9896 11.9986 12.3998 11.5436 12.5147C11.2172 12.5972 10.9422 12.4571 10.794 12.3628C10.6739 12.2863 10.5504 12.1797 10.4851 12.1234C10.4703 12.1106 10.4585 12.1005 10.4504 12.0938C9.91682 11.6546 9.55017 10.9836 9.27483 10.4798C9.2376 10.4117 9.20203 10.3466 9.16796 10.2855C8.80655 9.63866 8.43093 8.98512 8.05353 8.32845C7.54038 7.43561 7.02393 6.537 6.53537 5.64156L11.8269 0.574502ZM11.8269 0.574502C12.0349 0.466113 12.2541 0.479269 12.4775 0.593328C12.7122 0.713125 12.9189 0.932455 13.0316 1.16225M11.8269 0.574502L13.0316 1.16225M17.8711 14.3132C17.8573 14.3155 17.8434 14.3177 17.8292 14.3199M17.8711 14.3132L17.8292 14.3199M17.8292 14.3199C17.6796 14.3438 17.5052 14.3716 17.2863 14.4285L17.8292 14.3199ZM13.0316 1.16225C13.103 1.3082 13.1507 1.49415 13.1918 1.7279M13.0316 1.16225L13.1918 1.7279M13.1918 1.7279C13.2046 1.80058 13.2182 1.88856 13.2326 1.98208M13.1918 1.7279L13.2326 1.98208M13.2326 1.98208C13.2575 2.14338 13.2849 2.32115 13.3153 2.4653L13.2326 1.98208ZM4.49622 3.63341C4.49629 3.63354 4.49574 3.6346 4.49434 3.63617C4.49545 3.63407 4.49615 3.63328 4.49622 3.63341ZM5.5689 3.87961C5.60373 3.94974 5.6437 4.02958 5.68764 4.10755L5.29155 3.42596C5.34667 3.47824 5.40174 3.55732 5.46828 3.68132C5.49776 3.73627 5.52565 3.79246 5.55734 3.85633C5.56114 3.86398 5.56499 3.87173 5.5689 3.87961ZM5.68772 4.1077C5.97391 4.61585 6.25481 5.12742 6.53535 5.64154L5.68772 4.1077Z" fill="#102660" stroke="#102660"/>
<path d="M38.0394 19.9044C37.6257 21.206 37.1595 22.4763 36.6178 23.7396C36.426 24.1866 36.2438 24.6406 36.0641 25.0882C35.9778 25.3033 35.8921 25.5169 35.8061 25.7276L35.8061 25.7277C35.7753 25.8032 35.742 25.8817 35.7075 25.9629C35.5622 26.305 35.3963 26.6958 35.3126 27.1195L35.3126 27.1196C35.0893 28.2524 35.1552 29.3894 35.217 30.4567C35.2289 30.6605 35.2405 30.8617 35.25 31.0599C35.3012 32.13 35.2793 33.2307 35.2503 34.3223C35.2324 34.9871 35.1945 35.6508 35.1445 36.3182L38.0394 19.9044ZM38.0394 19.9044C38.106 19.6913 38.1817 19.4332 38.2429 19.1955C38.3072 18.9458 38.3458 18.755 38.3529 18.6598L38.3529 18.6598C38.4077 17.9267 38.3092 17.2217 38.0038 16.5692L38.0037 16.569C37.8725 16.2885 37.725 16.0407 37.5768 15.9278L37.5766 15.9277C37.4988 15.8683 37.375 15.8099 37.1864 15.7373C37.1504 15.7234 37.1106 15.7086 37.0683 15.6928C36.9213 15.6379 36.7449 15.5721 36.5978 15.4992L38.0394 19.9044ZM31.6035 11.6768L31.5835 12.1764C31.5348 12.1745 31.487 12.1725 31.4402 12.1705C31.097 12.1559 30.8017 12.1433 30.5081 12.1796L30.5078 12.1797C30.355 12.1985 30.2023 12.2335 30.0182 12.2757L30.0135 12.2768C29.8361 12.3174 29.6284 12.3649 29.41 12.3888L31.6035 11.6768ZM31.6035 11.6768L31.5835 12.1764C31.8712 12.1879 32.0779 12.1981 32.2406 12.2569C32.5407 12.3658 32.7645 12.588 33.0751 12.8962C33.1004 12.9213 33.1262 12.9469 33.1527 12.9731M31.6035 11.6768L33.1527 12.9731M26.021 13.3558L26.021 13.3558C25.0659 13.723 24.1433 14.1435 23.2055 14.5708C22.9812 14.673 22.7559 14.7757 22.5292 14.8781C21.3627 15.4048 20.1657 15.9206 18.8944 16.3089L18.8944 16.3089C18.6918 16.3708 18.4848 16.4267 18.287 16.4802C18.2431 16.4921 18.1996 16.5038 18.1568 16.5155C17.9161 16.581 17.6887 16.6453 17.4711 16.7205L26.021 13.3558ZM26.021 13.3558C27.1691 12.9144 28.249 12.5162 29.4099 12.3888L26.021 13.3558ZM16.7623 17.0043L16.7622 17.0044C16.339 17.099 15.8931 17.1088 15.5242 17.1169L15.5076 17.1173C15.4762 17.118 15.4438 17.1186 15.4105 17.1191C15.2381 17.1221 15.0428 17.1254 14.8585 17.1525C14.7613 17.1668 14.6885 17.1852 14.6391 17.2041C14.6395 17.2053 14.6399 17.2066 14.6403 17.2079C14.6598 17.2691 14.7043 17.3416 14.7543 17.3949L14.7543 17.395C15.0648 17.7257 15.5512 17.9061 16.1326 18.0134L16.1326 18.0134C16.8878 18.1527 17.6498 18.1302 18.4545 18.0663C18.6594 18.05 18.8693 18.0307 19.083 18.011C19.6884 17.9554 20.3229 17.8971 20.9527 17.8971C21.3659 17.8971 21.8478 17.9455 22.2768 18.1204C22.7177 18.3002 23.1299 18.6278 23.311 19.1816L22.8358 19.337L23.311 19.1816C23.5011 19.7632 23.3417 20.3837 23.1941 20.8029L23.1941 20.803C22.915 21.5952 22.5264 22.3165 22.1086 23.0137L22.1085 23.0138C21.3064 24.352 20.3384 25.5826 19.3903 26.7859M16.7623 17.0043L14.1456 32.32C13.6978 32.8185 13.2228 33.3474 13.6462 34.0158M16.7623 17.0043C16.9384 16.9649 17.0895 16.8954 17.2001 16.8425M16.7623 17.0043L17.2001 16.8425M19.3903 26.7859L18.9975 26.4764M19.3903 26.7859L18.9975 26.4764M19.3903 26.7859C18.248 28.2357 17.0772 29.6718 15.8717 31.0811L15.8716 31.0811C15.7544 31.2181 15.6368 31.3561 15.5189 31.4945C15.2379 31.8243 14.9547 32.1568 14.6682 32.4848M18.9975 26.4764C19.9487 25.2693 20.8966 24.0632 21.6797 22.7567C22.0906 22.071 22.4597 21.3828 22.7225 20.6369L18.9975 26.4764ZM14.6682 32.4848L14.2916 32.1559L14.6682 32.4847C14.6682 32.4848 14.6682 32.4848 14.6682 32.4848ZM14.6682 32.4848C14.6073 32.5546 14.5494 32.6192 14.4949 32.6801C14.3031 32.8944 14.1524 33.0627 14.0555 33.2463C14.0012 33.3492 13.9819 33.4279 13.9815 33.4925C13.981 33.5522 13.9963 33.6341 14.0686 33.7482M14.0686 33.7482C14.0686 33.7482 14.0685 33.7482 14.0685 33.7482L13.6462 34.0158M14.0686 33.7482C14.1162 33.8233 14.1894 33.8998 14.3066 34.0073L13.6462 34.0158M14.0686 33.7482L13.6462 34.0158M15.0541 34.0431L15.0542 34.043C15.2327 33.8836 15.4206 33.7357 15.5946 33.5987L15.6246 33.5752C15.8115 33.4279 15.9828 33.2918 16.1407 33.1472C16.3024 32.999 16.464 32.851 16.6256 32.7029C18.1489 31.3079 19.6678 29.9169 21.1515 28.4952C21.1972 28.4514 21.2432 28.407 21.2896 28.3623C21.7365 27.931 22.2194 27.4652 22.8507 27.1182C22.8634 27.1112 22.8806 27.1012 22.9012 27.0893C22.9889 27.0385 23.1394 26.9513 23.2808 26.8983C23.4793 26.8238 23.7682 26.7683 24.0721 26.9145L24.0724 26.9146C24.4431 27.0931 24.5736 27.4262 24.5927 27.7059C24.61 27.959 24.5433 28.2019 24.4945 28.3513M15.0541 34.0431L20.4343 36.7962C21.4649 34.7013 22.489 32.5995 23.4904 30.4906L23.4904 30.4905C23.5929 30.2747 23.7007 30.0684 23.8137 29.8523C23.8773 29.7306 23.9426 29.6059 24.0094 29.4745C24.1879 29.1237 24.3654 28.7482 24.4945 28.3513M15.0541 34.0431C14.9274 34.1562 14.845 34.2262 14.7664 34.2669C14.7066 34.2979 14.6856 34.2933 14.6649 34.2868M15.0541 34.0431L14.6649 34.2868M24.4945 28.3513L24.0191 28.1963L24.4946 28.3509C24.4946 28.351 24.4945 28.3512 24.4945 28.3513ZM19.8858 37.9102L19.8858 37.9102C19.8641 38.002 19.8799 38.1639 19.9763 38.3617C20.0704 38.5547 20.2101 38.716 20.3384 38.8031L19.8858 37.9102ZM19.8858 37.9102C19.9181 37.7732 19.991 37.6117 20.0982 37.4127M19.8858 37.9102L20.0982 37.4127M21.8178 37.8759L21.8179 37.8758C23.0237 35.6678 24.393 33.5062 25.7678 31.4025C25.8499 31.2769 25.9338 31.1434 26.0206 31.0052C26.3091 30.5463 26.6293 30.0369 27.0164 29.6032L27.0163 29.6033C27.0163 29.6033 27.021 29.5977 27.0322 29.5822C27.0436 29.5665 27.0557 29.5488 27.0728 29.524L27.0768 29.5182L27.0781 29.5163C27.1121 29.4668 27.1644 29.3907 27.2263 29.3189C27.3357 29.1921 27.6149 28.9184 28.0319 29.0188C28.4496 29.1193 28.5779 29.4778 28.6137 29.6759C28.6417 29.8307 28.6361 30.0174 28.6339 30.09C28.6335 30.1021 28.6332 30.111 28.6332 30.1161C28.6332 30.7619 28.5328 31.4233 28.4425 32.0173C28.4378 32.0487 28.433 32.0798 28.4283 32.1108L28.4283 32.1109C28.2788 33.0968 28.1634 34.0899 28.0472 35.0902C28.0293 35.2446 28.0113 35.3991 27.9932 35.5538M21.8178 37.8759L30.3205 31.0696C30.0081 32.5029 29.7704 33.9688 29.5353 35.4186C29.3928 36.2971 29.2513 37.1697 29.0948 38.0255C29.0764 38.1258 29.0597 38.2224 29.0436 38.3158C28.9639 38.7773 28.8983 39.1571 28.714 39.497L28.714 39.497C28.6066 39.6951 28.5154 39.7937 28.4338 39.8296C28.434 39.8296 28.4339 39.8296 28.4338 39.8296C28.432 39.8302 28.4095 39.8379 28.3432 39.8396C28.3092 39.8405 28.2717 39.8399 28.2243 39.8385C28.2173 39.8383 28.2099 39.8381 28.2021 39.8379C28.1623 39.8367 28.114 39.8352 28.0678 39.8352C27.8897 39.8352 27.8048 39.8197 27.7477 39.7908L27.7476 39.7908C27.64 39.7364 27.5616 39.6311 27.5616 39.3041C27.5615 39.1459 27.5811 38.9729 27.6066 38.7841C27.6107 38.754 27.6151 38.7227 27.6195 38.6906C27.6408 38.5382 27.6644 38.3687 27.6722 38.2222L27.6722 38.2221C27.7026 37.653 27.7807 37.1052 27.8621 36.5344C27.9073 36.2172 27.9536 35.8929 27.9932 35.5538M21.8178 37.8759C21.7675 37.9682 21.7185 38.0677 21.6735 38.159L21.667 38.1723C21.6184 38.2709 21.5729 38.3628 21.5249 38.4507C21.4256 38.6327 21.3382 38.7543 21.2545 38.8258L21.2545 38.8257M21.8178 37.8759L21.2545 38.8257M27.9932 35.5538L27.4966 35.4957M27.9932 35.5538C27.9932 35.5538 27.9932 35.5537 27.9932 35.5537L27.4966 35.4957M27.4966 35.4957C27.5146 35.3417 27.5325 35.1876 27.5504 35.0334C27.6666 34.0337 27.7831 33.0312 27.934 32.0359L27.3714 36.4319C27.4158 36.1196 27.4601 35.8075 27.4966 35.4957ZM31.6283 28.536L31.6287 28.5359C31.9424 28.468 32.2046 28.602 32.3531 28.7028C32.5112 28.81 32.6359 28.9439 32.7101 29.0303L32.7103 29.0304C33.0122 29.3821 33.096 29.7831 33.1267 30.1174C33.1396 30.2574 33.144 30.4002 33.1479 30.5247C33.1486 30.5458 33.1492 30.5664 33.1499 30.5863C33.1548 30.7323 33.1609 30.8537 33.1769 30.9644C33.2858 31.715 33.3487 32.473 33.41 33.2135C33.4207 33.3418 33.4313 33.4695 33.442 33.5966C33.5157 34.4651 33.5986 35.3104 33.7613 36.1392L33.7614 36.1393C33.7832 36.2508 33.7998 36.3555 33.8157 36.456C33.8482 36.6607 33.8778 36.848 33.9438 37.0398C34.0328 37.2985 34.1324 37.3811 34.2467 37.4072C34.3846 37.4387 34.5703 37.4412 34.7323 37.4018C34.9013 37.3607 34.9635 37.2965 34.9795 37.2684L31.6283 28.536ZM31.6283 28.536C31.3484 28.5968 31.1612 28.7799 31.0502 28.9208C30.9362 29.0657 30.8579 29.2232 30.8107 29.3245M31.6283 28.536L30.8107 29.3245M33.1527 12.9731C33.1527 12.9731 33.1527 12.9731 33.1526 12.973L33.5043 12.6176L33.1527 12.9731ZM33.1527 12.9731C33.563 13.3789 33.9939 13.8018 34.4824 14.183M33.1527 12.9731L34.4824 14.183M34.4824 14.183C35.1371 14.6942 35.8506 15.129 36.5976 15.4991L34.4824 14.183ZM17.2001 16.8425C17.2231 16.8315 17.2442 16.8213 17.2638 16.8119M17.2001 16.8425L17.2638 16.8119M17.2638 16.8119C17.3506 16.77 17.4082 16.7422 17.471 16.7205L17.2638 16.8119ZM14.6649 34.2868C14.5847 34.2613 14.4985 34.1835 14.3067 34.0074L14.6649 34.2868ZM20.0982 37.4127C20.1304 37.3531 20.1691 37.2842 20.21 37.2114M20.0982 37.4127L20.21 37.2114M20.21 37.2114C20.2866 37.0751 20.3709 36.9251 20.4342 36.7963L20.21 37.2114ZM21.2545 38.8257C21.2545 38.8257 21.2465 38.8322 21.2257 38.8417M21.2545 38.8257L21.2257 38.8417M21.2257 38.8417C21.2038 38.8518 21.1729 38.8629 21.1321 38.8729M21.2257 38.8417L21.1321 38.8729M21.1321 38.8729C21.0493 38.8933 20.9445 38.9048 20.8298 38.9036M21.1321 38.8729L20.8298 38.9036M20.8298 38.9036C20.578 38.9009 20.3937 38.8405 20.3385 38.8032L20.8298 38.9036ZM30.8107 29.3245C30.5804 29.8173 30.4704 30.3493 30.3748 30.8115M30.8107 29.3245L30.3748 30.8115M30.3748 30.8115C30.3564 30.9004 30.3386 30.9866 30.3205 31.0695L30.3748 30.8115ZM35.1379 36.4088C35.1401 36.3787 35.1423 36.3485 35.1445 36.3182L35.1379 36.4088ZM35.1379 36.4088C35.1266 36.566 35.1155 36.7205 35.0922 36.8733M35.1379 36.4088L35.0922 36.8733M35.0922 36.8733C35.0641 37.0583 35.0248 37.1887 34.9796 37.2683L35.0922 36.8733ZM14.6313 17.1629C14.6314 17.1629 14.6314 17.1639 14.6312 17.1657C14.6311 17.1637 14.6312 17.1628 14.6313 17.1629ZM14.5921 17.2266C14.5921 17.2266 14.5924 17.2263 14.5932 17.2257L14.5921 17.2266Z" fill="#102660" stroke="#102660"/>
</svg>
