<svg width="25" height="22" viewBox="0 0 25 22" fill="none" xmlns="http://www.w3.org/2000/svg">
<path d="M8 11C9.37377 11 10.5634 10.458 11.5353 9.38863C12.5073 8.31943 13 7.0112 13 5.49983C13 3.98898 12.5073 2.68057 11.5352 1.61103C10.563 0.542003 9.37361 0 8 0C6.62607 0 5.43681 0.542003 4.46484 1.6112C3.49287 2.6804 3 3.9888 3 5.49983C3 7.0112 3.49287 8.3196 4.465 9.3888C5.43712 10.4578 6.62654 11 8 11Z" fill="#102660"/>
<path d="M16.9588 17.0836C16.9313 16.669 16.8756 16.2167 16.7937 15.7391C16.711 15.258 16.6045 14.8031 16.477 14.3873C16.3454 13.9576 16.1663 13.5333 15.9449 13.1266C15.7151 12.7045 15.4453 12.337 15.1424 12.0346C14.8258 11.7182 14.438 11.4638 13.9897 11.2782C13.5429 11.0937 13.0478 11.0002 12.5181 11.0002C12.3101 11.0002 12.109 11.0893 11.7205 11.3534C11.4814 11.5162 11.2017 11.7045 10.8896 11.9128C10.6226 12.0904 10.261 12.2568 9.8144 12.4075C9.37865 12.5547 8.93622 12.6294 8.49953 12.6294C8.06285 12.6294 7.62057 12.5547 7.18436 12.4075C6.73819 12.257 6.37659 12.0906 6.10998 11.913C5.80078 11.7067 5.52095 11.5183 5.27828 11.3532C4.89026 11.0891 4.68894 11 4.48093 11C3.95113 11 3.45615 11.0937 3.00952 11.2784C2.56149 11.4636 2.17362 11.718 1.85664 12.0347C1.55396 12.3373 1.28393 12.7047 1.05447 13.1266C0.833257 13.5333 0.654169 13.9575 0.52234 14.3875C0.39502 14.8032 0.288531 15.258 0.205827 15.7391C0.1239 16.2161 0.0682463 16.6685 0.0407301 17.0841C0.0136803 17.4912 0 17.9138 0 18.3406C0 19.4513 0.338122 20.3505 1.00488 21.0136C1.66341 21.668 2.53475 22 3.59435 22H13.4056C14.4653 22 15.3363 21.6682 15.995 21.0136C16.6619 20.351 17 19.4516 17 18.3404C16.9998 17.9117 16.986 17.4888 16.9588 17.0836Z" fill="#102660"/>
<path d="M17 11C18.3738 11 19.5634 10.458 20.5353 9.38863C21.5073 8.31943 22 7.0112 22 5.49983C22 3.98898 21.5073 2.68057 20.5352 1.61103C19.563 0.542003 18.3736 0 17 0C15.6261 0 14.4368 0.542003 13.4648 1.6112C12.4929 2.6804 12 3.9888 12 5.49983C12 7.0112 12.4929 8.3196 13.465 9.3888C14.4371 10.4578 15.6265 11 17 11Z" fill="#102660" fill-opacity="0.5"/>
<path d="M24.9588 17.0836C24.9313 16.669 24.8756 16.2167 24.7937 15.7391C24.711 15.258 24.6045 14.8031 24.477 14.3873C24.3454 13.9576 24.1663 13.5333 23.9449 13.1266C23.7151 12.7045 23.4453 12.337 23.1424 12.0346C22.8258 11.7182 22.438 11.4638 21.9897 11.2782C21.5429 11.0937 21.0478 11.0002 20.5181 11.0002C20.3101 11.0002 20.109 11.0893 19.7205 11.3534C19.4814 11.5162 19.2017 11.7045 18.8896 11.9128C18.6226 12.0904 18.261 12.2568 17.8144 12.4075C17.3787 12.5547 16.9362 12.6294 16.4995 12.6294C16.0629 12.6294 15.6206 12.5547 15.1844 12.4075C14.7382 12.257 14.3766 12.0906 14.11 11.913C13.8008 11.7067 13.521 11.5183 13.2783 11.3532C12.8903 11.0891 12.6889 11 12.4809 11C11.9511 11 11.4562 11.0937 11.0095 11.2784C10.5615 11.4636 10.1736 11.718 9.85664 12.0347C9.55396 12.3373 9.28393 12.7047 9.05447 13.1266C8.83326 13.5333 8.65417 13.9575 8.52234 14.3875C8.39502 14.8032 8.28853 15.258 8.20583 15.7391C8.1239 16.2161 8.06825 16.6685 8.04073 17.0841C8.01368 17.4912 8 17.9138 8 18.3406C8 19.4513 8.33812 20.3505 9.00488 21.0136C9.66341 21.668 10.5347 22 11.5944 22H21.4056C22.4653 22 23.3363 21.6682 23.995 21.0136C24.6619 20.351 25 19.4516 25 18.3404C24.9998 17.9117 24.986 17.4888 24.9588 17.0836Z" fill="#102660" fill-opacity="0.5"/>
</svg>
