<svg width="28" height="27" viewBox="0 0 28 27" fill="none" xmlns="http://www.w3.org/2000/svg">
<path d="M15.2327 0.0532932C15.1648 0.0953369 14.9772 0.415516 14.4953 1.32107C14.1363 1.9873 13.8065 2.57268 13.7547 2.61795C13.6706 2.69881 13.6448 2.70527 13.179 2.72791C12.9139 2.74085 12.6519 2.74085 12.6001 2.73115C12.4805 2.70527 12.3317 2.55004 12.0989 2.21045C12.0018 2.06815 11.8563 1.85793 11.7754 1.74151C11.6946 1.62508 11.5329 1.39222 11.4165 1.22405C11.2968 1.05587 11.106 0.777737 10.9895 0.606329C10.7826 0.30232 10.6888 0.221468 10.5432 0.221468C10.4365 0.221468 8.09177 1.02353 7.99798 1.09145C7.86862 1.18524 7.83304 1.28226 7.85245 1.49895C7.86215 1.60567 7.89126 1.92585 7.9139 2.21045C7.93977 2.49506 7.97858 3.03839 8.00122 3.42002C8.04326 4.08624 8.04003 4.11535 7.98181 4.21884C7.90096 4.35144 7.13124 4.89478 6.95013 4.94652C6.79813 4.98856 6.74961 4.97239 5.83112 4.58753C4.67331 4.09918 4.58599 4.06361 4.38224 3.98599C4.26904 3.94394 4.13321 3.90837 4.08146 3.90837C3.96827 3.90837 3.82273 3.98599 3.76775 4.07007C3.74835 4.10242 3.54783 4.35791 3.31821 4.63605C3.09182 4.91418 2.87513 5.18261 2.83956 5.23112C2.80398 5.2764 2.65521 5.46721 2.50968 5.64832C2.16686 6.07199 2.16039 6.12698 2.41266 6.45039C2.50321 6.57328 2.60347 6.70265 2.62934 6.74146C2.65521 6.78027 2.89777 7.09721 3.16297 7.4465C4.06853 8.63989 4.02648 8.54286 3.84861 8.96007C3.78716 9.10884 3.67396 9.37727 3.59958 9.55838C3.412 10.0015 3.36025 10.05 2.96246 10.1211C1.02198 10.4736 0.475416 10.5771 0.42367 10.6062C0.391329 10.6224 0.346051 10.6709 0.320178 10.7097C0.252262 10.8132 0.0549801 12.3397 0.0226389 13.0318L0 13.4361L0.271666 13.5363C0.420436 13.5946 0.724443 13.7045 0.947598 13.7854C1.17075 13.8662 1.53297 13.9988 1.75613 14.0797C1.97928 14.1638 2.28976 14.277 2.44823 14.3287C2.7393 14.429 2.86543 14.5195 2.92365 14.6715C2.95599 14.7524 3.14357 15.7744 3.16944 16.0072C3.18238 16.1139 3.16944 16.1851 3.1274 16.2692C3.09182 16.3306 2.61317 16.806 2.06014 17.3235C1.5071 17.841 1.04462 18.2873 1.03168 18.3164C0.983173 18.4457 1.03815 18.5816 1.46829 19.4257C2.07954 20.6191 2.12805 20.7096 2.22508 20.7517C2.36414 20.8164 2.30916 20.8261 3.6966 20.5124C3.9715 20.4509 4.39841 20.3539 4.64097 20.2989C5.19723 20.1728 5.25221 20.1825 5.52712 20.4735C5.63384 20.5867 5.87317 20.839 6.06398 21.0395C6.44237 21.4373 6.50705 21.557 6.44237 21.764C6.4262 21.8222 6.37446 22.0195 6.33241 22.1973C6.29037 22.3752 6.19658 22.7536 6.12219 23.0382C5.75997 24.4289 5.75674 24.4644 5.90551 24.597C5.94432 24.6326 6.15777 24.762 6.38092 24.8881C6.60408 25.011 7.03745 25.2568 7.34469 25.4315C7.98505 25.7904 8.05297 25.8195 8.16292 25.7937C8.21144 25.7807 8.63511 25.3797 9.18167 24.8299C9.6959 24.3124 10.1454 23.8597 10.181 23.8273C10.3266 23.685 10.443 23.6818 11.0284 23.8144C11.3259 23.8823 11.6428 23.9502 11.7334 23.9664C11.9242 24.0052 12.0342 24.0569 12.1247 24.1604C12.1635 24.2057 12.3576 24.7361 12.6066 25.4897C12.8362 26.1818 13.0497 26.7898 13.082 26.8415C13.1629 26.9741 13.2567 27 13.6351 27C14.2107 27 15.5658 26.8642 15.7502 26.7898C15.8957 26.7283 15.9378 26.641 16.0121 26.2562C16.0509 26.0686 16.1383 25.6384 16.2127 25.3021C16.2838 24.9625 16.3808 24.5065 16.4229 24.2833C16.5199 23.8079 16.5749 23.7271 16.9177 23.5945C17.723 23.2808 17.8879 23.2193 17.9688 23.1999C18.1337 23.1579 18.276 23.2128 18.5283 23.4198C18.6641 23.5298 18.8226 23.6559 18.8808 23.7012C18.939 23.7465 19.2107 23.9632 19.4824 24.1863C20.3944 24.9302 20.4429 24.9625 20.5593 24.9625C20.6822 24.9625 20.7922 24.8946 21.232 24.5582C21.4196 24.4159 21.7948 24.1281 22.0697 23.9211C22.82 23.3487 22.7618 23.4101 22.7585 23.229C22.7585 23.1158 22.71 22.9444 22.5871 22.6339C22.296 21.8933 21.9015 20.8487 21.8368 20.6482C21.7527 20.3927 21.785 20.286 22.0599 19.9205C22.1796 19.7588 22.3349 19.5453 22.406 19.4451C22.4933 19.319 22.5774 19.2413 22.668 19.2025C22.8135 19.1378 22.7456 19.1314 24.6149 19.3384C25.6175 19.4483 25.5948 19.4483 25.6983 19.361C25.7566 19.3125 25.8212 19.1928 25.8859 19.0117C26.0638 18.5201 26.1349 18.3229 26.2869 17.9121C26.5845 17.1068 26.6589 16.8772 26.6589 16.7866C26.6589 16.6152 26.73 16.6734 24.7119 15.1858C24.2009 14.8074 24.1945 14.7944 24.2171 14.3222C24.2527 13.5978 24.2624 13.5493 24.3723 13.4329C24.4435 13.3585 24.851 13.1353 25.6789 12.7214C26.4745 12.3236 26.9079 12.0875 26.9532 12.0325C27.0308 11.9322 27.0243 11.7802 26.9305 11.4277C26.882 11.2401 26.8044 10.8811 26.578 9.80417C26.5166 9.5131 26.4487 9.2479 26.426 9.21233C26.3419 9.07973 26.2223 9.06032 25.1227 8.98917C23.2145 8.86628 23.3762 8.88568 23.2307 8.74338C23.1595 8.67223 23.0949 8.59138 23.0852 8.56227C23.0755 8.53316 22.9946 8.37792 22.9073 8.21945C22.6971 7.85076 22.6938 7.72787 22.8685 7.43033C22.9364 7.31713 23.0981 7.04223 23.2307 6.81908C23.5121 6.34043 23.9034 5.67743 24.0586 5.42194C24.2074 5.17291 24.2074 5.04354 24.0489 4.86567C23.9843 4.79452 23.5476 4.34497 23.0819 3.86956C22.1149 2.88638 22.1246 2.89285 21.8271 3.04486C21.7365 3.09337 21.5813 3.17422 21.4843 3.23244C21.2417 3.36827 20.7986 3.6173 20.5625 3.74666C20.4558 3.80488 20.2585 3.91483 20.1259 3.98922C19.6602 4.25118 19.4694 4.33527 19.3465 4.33527C19.2075 4.33204 18.5897 4.00216 18.4313 3.84369C18.3407 3.75313 18.3342 3.73372 18.3116 3.36827C18.2987 3.15805 18.2696 2.50476 18.2502 1.91938C18.2081 0.810078 18.1984 0.735693 18.0561 0.648373C18.0011 0.616032 17.7068 0.541647 16.6978 0.30232C16.4229 0.234406 16.0348 0.140615 15.8343 0.0888691C15.4106 -0.0210915 15.3556 -0.0243244 15.2327 0.0532932ZM14.6926 5.65479C15.9086 5.8262 17.0729 6.29838 18.137 7.04547C18.7967 7.51118 19.5147 8.24209 20.0225 8.96007C20.5205 9.66187 20.9539 10.6159 21.1867 11.5118C21.3614 12.1877 21.4034 12.5661 21.4034 13.4975C21.4034 14.3837 21.3549 14.8138 21.1867 15.4542C20.4494 18.2582 18.3019 20.4089 15.5011 21.1462C14.8705 21.3112 14.2851 21.3791 13.5283 21.3791C12.8039 21.3759 12.3802 21.3306 11.7657 21.1948C10.8181 20.9813 9.76705 20.5156 8.99733 19.9658C8.55425 19.6488 8.40548 19.5227 7.94624 19.0635C7.27354 18.3875 6.88868 17.8636 6.47471 17.0389C6.11896 16.3403 5.85376 15.5253 5.71469 14.7265C5.63384 14.2576 5.61767 13.0771 5.68559 12.5079C5.77938 11.7155 5.98959 10.9652 6.33241 10.2052C7.5258 7.55646 10.1196 5.76475 13.027 5.57718C13.4216 5.5513 14.2366 5.59011 14.6926 5.65479Z" fill="#102660"/>
</svg>
