<?xml version="1.0" standalone="no"?>
<!DOCTYPE svg PUBLIC "-//W3C//DTD SVG 20010904//EN"
 "http://www.w3.org/TR/2001/REC-SVG-20010904/DTD/svg10.dtd">
<svg version="1.0" xmlns="http://www.w3.org/2000/svg"
 width="840.000000pt" height="859.000000pt" viewBox="0 0 840.000000 859.000000"
 preserveAspectRatio="xMidYMid meet">

<g transform="translate(0.000000,859.000000) scale(0.100000,-0.100000)"
fill="#000000" stroke="none">
<path d="M4737 8452 c-21 -13 -79 -112 -228 -392 -111 -206 -213 -387 -229
-401 -26 -25 -34 -27 -178 -34 -82 -4 -163 -4 -179 -1 -37 8 -83 56 -155 161
-30 44 -75 109 -100 145 -25 36 -75 108 -111 160 -37 52 -96 138 -132 191 -64
94 -93 119 -138 119 -33 0 -758 -248 -787 -269 -40 -29 -51 -59 -45 -126 3
-33 12 -132 19 -220 8 -88 20 -256 27 -374 13 -206 12 -215 -6 -247 -25 -41
-263 -209 -319 -225 -47 -13 -62 -8 -346 111 -358 151 -385 162 -448 186 -35
13 -77 24 -93 24 -35 0 -80 -24 -97 -50 -6 -10 -68 -89 -139 -175 -70 -86
-137 -169 -148 -184 -11 -14 -57 -73 -102 -129 -106 -131 -108 -148 -30 -248
28 -38 59 -78 67 -90 8 -12 83 -110 165 -218 280 -369 267 -339 212 -468 -19
-46 -54 -129 -77 -185 -58 -137 -74 -152 -197 -174 -600 -109 -769 -141 -785
-150 -10 -5 -24 -20 -32 -32 -21 -32 -82 -504 -92 -718 l-7 -125 84 -31 c46
-18 140 -52 209 -77 69 -25 181 -66 250 -91 69 -26 165 -61 214 -77 90 -31
129 -59 147 -106 10 -25 68 -341 76 -413 4 -33 0 -55 -13 -81 -11 -19 -159
-166 -330 -326 -171 -160 -314 -298 -318 -307 -15 -40 2 -82 135 -343 189
-369 204 -397 234 -410 43 -20 26 -23 455 74 85 19 217 49 292 66 172 39 189
36 274 -54 33 -35 107 -113 166 -175 117 -123 137 -160 117 -224 -5 -18 -21
-79 -34 -134 -13 -55 -42 -172 -65 -260 -112 -430 -113 -441 -67 -482 12 -11
78 -51 147 -90 69 -38 203 -114 298 -168 198 -111 219 -120 253 -112 15 4 146
128 315 298 159 160 298 300 309 310 45 44 81 45 262 4 92 -21 190 -42 218
-47 59 -12 93 -28 121 -60 12 -14 72 -178 149 -411 71 -214 137 -402 147 -418
25 -41 54 -49 171 -49 178 0 597 42 654 65 45 19 58 46 81 165 12 58 39 191
62 295 22 105 52 246 65 315 30 147 47 172 153 213 249 97 300 116 325 122 51
13 95 -4 173 -68 42 -34 91 -73 109 -87 18 -14 102 -81 186 -150 282 -230 297
-240 333 -240 38 0 72 21 208 125 58 44 174 133 259 197 232 177 214 158 213
214 0 35 -15 88 -53 184 -90 229 -212 552 -232 614 -26 79 -16 112 69 225 37
50 85 116 107 147 27 39 53 63 81 75 45 20 24 22 602 -42 310 -34 303 -34 335
-7 18 15 38 52 58 108 55 152 77 213 124 340 92 249 115 320 115 348 0 53 22
35 -602 495 -158 117 -160 121 -153 267 11 224 14 239 48 275 22 23 148 92
404 220 246 123 380 196 394 213 24 31 22 78 -7 187 -15 58 -39 169 -109 502
-19 90 -40 172 -47 183 -26 41 -63 47 -403 69 -590 38 -540 32 -585 76 -22 22
-42 47 -45 56 -3 9 -28 57 -55 106 -65 114 -66 152 -12 244 21 35 71 120 112
189 87 148 208 353 256 432 46 77 46 117 -3 172 -20 22 -155 161 -299 308
-299 304 -296 302 -388 255 -28 -15 -76 -40 -106 -58 -75 -42 -212 -119 -285
-159 -33 -18 -94 -52 -135 -75 -144 -81 -203 -107 -241 -107 -43 1 -234 103
-283 152 -28 28 -30 34 -37 147 -4 65 -13 267 -19 448 -13 343 -16 366 -60
393 -17 10 -108 33 -420 107 -85 21 -205 50 -267 66 -131 34 -148 35 -186 11z
m-167 -1732 c376 -53 736 -199 1065 -430 204 -144 426 -370 583 -592 154 -217
288 -512 360 -789 54 -209 67 -326 67 -614 0 -274 -15 -407 -67 -605 -228
-867 -892 -1532 -1758 -1760 -195 -51 -376 -72 -610 -72 -224 1 -355 15 -545
57 -293 66 -618 210 -856 380 -137 98 -183 137 -325 279 -208 209 -327 371
-455 626 -110 216 -192 468 -235 715 -25 145 -30 510 -9 686 29 245 94 477
200 712 369 819 1171 1373 2070 1431 122 8 374 -4 515 -24z"/>
</g>
</svg>
