<?xml version="1.0" standalone="no"?>
<!DOCTYPE svg PUBLIC "-//W3C//DTD SVG 20010904//EN"
 "http://www.w3.org/TR/2001/REC-SVG-20010904/DTD/svg10.dtd">
<svg version="1.0" xmlns="http://www.w3.org/2000/svg"
 width="1200.000000pt" height="630.000000pt" viewBox="0 0 1200.000000 630.000000"
 preserveAspectRatio="xMidYMid meet">

<g transform="translate(0.000000,630.000000) scale(0.100000,-0.100000)"
fill="#000000" stroke="none">
<path d="M5730 4981 c-214 -30 -410 -86 -565 -164 -44 -21 -81 -40 -82 -41 -2
-2 13 -52 31 -112 19 -60 60 -190 91 -288 30 -98 58 -182 61 -187 2 -4 32 8
67 28 178 101 445 148 617 107 111 -26 184 -81 232 -173 19 -38 23 -61 23
-136 -1 -76 -5 -101 -29 -159 -38 -90 -116 -207 -258 -387 -185 -235 -255
-357 -311 -543 -27 -93 -30 -117 -35 -293 l-4 -193 364 0 365 0 6 128 c12 288
79 427 362 752 279 321 368 505 382 790 21 448 -272 776 -772 866 -141 25
-384 27 -545 5z"/>
<path d="M5761 2149 c-205 -65 -323 -236 -325 -469 -1 -151 44 -268 140 -363
95 -96 227 -143 374 -134 211 13 372 133 432 322 29 90 31 241 4 330 -48 158
-162 272 -315 316 -90 26 -224 25 -310 -2z"/>
</g>
</svg>
